<svg width="195" height="39" viewBox="0 0 195 39" fill="none" xmlns="http://www.w3.org/2000/svg">
<path fill-rule="evenodd" clip-rule="evenodd" d="M0.715088 0.260254H43.2579V38.7402H0.715088V0.260254ZM6.03294 33.4327V5.56784H37.94V33.4327H25.3101V26.7982H18.6628V33.4327H6.03294ZM116.995 29.737C114.834 29.6895 113.101 28.9768 111.797 27.599C110.493 26.2211 109.755 24.3776 109.583 22.0685C109.488 20.9282 109.579 19.5884 109.855 18.049C110.13 16.5 110.621 15.0746 111.326 13.7728C112.03 12.4709 112.911 11.3877 113.968 10.5229C115.739 9.06905 117.776 8.36586 120.08 8.41337C121.499 8.44189 122.736 8.76977 123.793 9.39693C124.86 10.0146 125.712 10.9078 126.349 12.0766C126.987 13.2454 127.359 14.5758 127.463 16.0677C127.54 17.1224 127.473 18.3245 127.263 19.6739C127.064 21.0137 126.688 22.2965 126.135 23.5224C125.593 24.7387 124.888 25.8125 124.022 26.7437C123.155 27.675 122.132 28.4162 120.951 28.9673C119.78 29.509 118.462 29.7655 116.995 29.737ZM122.565 16.0249C122.47 13.6493 121.547 12.414 119.794 12.319C118.442 12.2524 117.324 12.7893 116.438 13.9296C115.553 15.0604 114.967 16.7329 114.682 18.9469C114.501 20.3153 114.434 21.3748 114.482 22.1255C114.577 24.5391 115.51 25.7792 117.281 25.8457C118.442 25.9028 119.442 25.4894 120.28 24.6057C121.118 23.7124 121.723 22.4201 122.094 20.7286C122.465 19.0277 122.622 17.4598 122.565 16.0249ZM71.3222 29.452H76.2059L79.8194 8.69845H62.8103L59.2114 29.452H64.0959L67.0373 12.5612H74.2496L71.3222 29.452ZM104.43 8.69845H99.417L90.0915 21.5126L92.3336 8.69845H87.4352L83.8218 29.452H88.8491L98.1746 16.6521L95.9325 29.452H100.831L104.43 8.69845ZM144.268 29.452H149.124L152.738 8.69845H147.867L146.439 16.9371H139.299L140.741 8.69845H135.843L132.243 29.452H137.128L138.641 20.7857H145.768L144.268 29.452ZM170.485 20.6574H162.844L161.974 25.6034H171.014L170.342 29.452H156.418L160.017 8.69845H173.97L173.299 12.5612H164.244L163.473 16.9371H171.128L170.485 20.6574ZM181.421 29.452L182.649 22.4106L186.077 22.4249C187.666 22.4249 189.099 22.154 190.375 21.6124C191.66 21.0708 192.693 20.2868 193.474 19.2605C194.255 18.2343 194.702 17.0227 194.817 15.6258C194.978 13.5828 194.393 11.9198 193.06 10.637C191.737 9.35414 189.918 8.71271 187.604 8.71271L180.135 8.69845L176.536 29.452H181.421ZM186.262 18.5763L183.32 18.5478L184.362 12.5612L187.776 12.5755C188.376 12.6135 188.857 12.8035 189.218 13.1457C189.59 13.4783 189.813 13.9344 189.89 14.514C190.023 15.6448 189.761 16.5998 189.104 17.379C188.447 18.1487 187.5 18.5478 186.262 18.5763Z" fill="#007DB8"/>
</svg>
